Crickx.ufo
<glyph name="quotedbl" format="1">
  <advance width="449"/>
  <unicode hex="0022"/>
  <outline>
    <contour>
      <point x="171" y="359" type="qcurve" smooth="no"/>
      <point x="121" y="354"/>
      <point x="88" y="358" type="qcurve" smooth="no"/>
      <point x="112" y="475" type="line" smooth="no"/>
      <point x="92" y="475"/>
      <point x="68" y="477"/>
      <point x="57" y="477" type="qcurve" smooth="no"/>
      <point x="58" y="525"/>
      <point x="72" y="622" type="qcurve" smooth="no"/>
      <point x="118" y="623"/>
      <point x="220" y="630" type="qcurve" smooth="no"/>
      <point x="215" y="570"/>
      <point x="199" y="494" type="qcurve" smooth="yes"/>
      <point x="174" y="377"/>
    </contour>
    <contour>
      <point x="354" y="359" type="qcurve" smooth="no"/>
      <point x="304" y="354"/>
      <point x="271" y="358" type="qcurve" smooth="no"/>
      <point x="294" y="475" type="line" smooth="no"/>
      <point x="274" y="475"/>
      <point x="264" y="476" type="qcurve" smooth="yes"/>
      <point x="251" y="477"/>
      <point x="239" y="477" type="qcurve" smooth="no"/>
      <point x="241" y="525"/>
      <point x="255" y="622" type="qcurve" smooth="no"/>
      <point x="300" y="623"/>
      <point x="402" y="630" type="qcurve" smooth="no"/>
      <point x="398" y="570"/>
      <point x="381" y="494" type="qcurve" smooth="no"/>
      <point x="357" y="377"/>
    </contour>
  </outline>
</glyph>
<glyph name="percent" format="1">
  <advance width="625"/>
  <unicode hex="0025"/>
  <outline>
    <contour>
      <point x="578" y="591" type="line" smooth="no"/>
      <point x="432" y="354"/>
      <point x="353" y="237" type="qcurve" smooth="no"/>
      <point x="389" y="254"/>
      <point x="435" y="254" type="qcurve" smooth="yes"/>
      <point x="480" y="254"/>
      <point x="517" y="222" type="qcurve" smooth="yes"/>
      <point x="563" y="183"/>
      <point x="563" y="116" type="qcurve" smooth="yes"/>
      <point x="563" y="67"/>
      <point x="473" y="-12"/>
      <point x="418" y="-12" type="qcurve" smooth="yes"/>
      <point x="371" y="-12"/>
      <point x="329" y="25" type="qcurve" smooth="yes"/>
      <point x="283" y="67"/>
      <point x="283" y="127" type="qcurve" smooth="yes"/>
      <point x="283" y="131"/>
      <point x="284" y="135" type="qcurve" smooth="no"/>
      <point x="172" y="-23" type="line" smooth="no"/>
      <point x="50" y="42" type="line" smooth="no"/>
      <point x="307" y="402" type="line" smooth="no"/>
      <point x="272" y="381"/>
      <point x="244" y="381" type="qcurve" smooth="yes"/>
      <point x="197" y="381"/>
      <point x="155" y="418" type="qcurve" smooth="yes"/>
      <point x="110" y="458"/>
      <point x="110" y="513" type="qcurve" smooth="yes"/>
      <point x="110" y="582"/>
      <point x="170" y="619" type="qcurve" smooth="yes"/>
      <point x="215" y="647"/>
      <point x="261" y="647" type="qcurve" smooth="yes"/>
      <point x="304" y="647"/>
      <point x="341" y="618" type="qcurve" smooth="yes"/>
      <point x="386" y="582"/>
      <point x="389" y="519" type="qcurve" smooth="no"/>
      <point x="475" y="647" type="line" smooth="no"/>
    </contour>
    <contour>
      <point x="254" y="549" type="qcurve" smooth="yes"/>
      <point x="224" y="549"/>
      <point x="224" y="523" type="qcurve" smooth="yes"/>
      <point x="224" y="495"/>
      <point x="255" y="495" type="qcurve" smooth="yes"/>
      <point x="262" y="495"/>
      <point x="279" y="515"/>
      <point x="279" y="522" type="qcurve" smooth="yes"/>
      <point x="279" y="549"/>
    </contour>
    <contour>
      <point x="429" y="139" type="qcurve" smooth="yes"/>
      <point x="400" y="139"/>
      <point x="400" y="114" type="qcurve" smooth="yes"/>
      <point x="400" y="85"/>
      <point x="430" y="85" type="qcurve" smooth="yes"/>
      <point x="438" y="85"/>
      <point x="455" y="106"/>
      <point x="455" y="113" type="qcurve" smooth="yes"/>
      <point x="455" y="139"/>
    </contour>
  </outline>
</glyph>
<glyph name="ampersand" format="1">
  <advance width="590"/>
  <unicode hex="0026"/>
  <outline>
    <contour>
      <point x="348" y="461" type="qcurve" smooth="yes"/>
      <point x="348" y="497"/>
      <point x="304" y="497" type="qcurve" smooth="yes"/>
      <point x="284" y="497"/>
      <point x="272" y="476" type="qcurve" smooth="yes"/>
      <point x="262" y="460"/>
      <point x="262" y="441" type="qcurve" smooth="no"/>
      <point x="266" y="427"/>
      <point x="280" y="402" type="qcurve" smooth="no"/>
      <point x="348" y="424"/>
    </contour>
    <contour>
      <point x="113" y="428" type="qcurve" smooth="yes"/>
      <point x="113" y="478"/>
      <point x="122" y="533" type="qcurve" smooth="yes"/>
      <point x="128" y="572"/>
      <point x="172" y="605" type="qcurve" smooth="yes"/>
      <point x="221" y="642"/>
      <point x="285" y="642" type="qcurve" smooth="no"/>
      <point x="328" y="639"/>
      <point x="360" y="626" type="qcurve" smooth="yes"/>
      <point x="436" y="595"/>
      <point x="442" y="518" type="qcurve" smooth="no"/>
      <point x="441" y="484"/>
      <point x="436" y="436"/>
      <point x="424" y="412" type="qcurve" smooth="yes"/>
      <point x="396" y="356"/>
      <point x="324" y="319" type="qcurve" smooth="no"/>
      <point x="415" y="264" type="line" smooth="no"/>
      <point x="532" y="355" type="line" smooth="no"/>
      <point x="541" y="258" type="line" smooth="no"/>
      <point x="481" y="205" type="line" smooth="no"/>
      <point x="540" y="183" type="line" smooth="no"/>
      <point x="539" y="81" type="line" smooth="no"/>
      <point x="484" y="86"/>
      <point x="400" y="128" type="qcurve" smooth="no"/>
      <point x="352" y="62"/>
      <point x="324" y="38" type="qcurve" smooth="yes"/>
      <point x="274" y="-5"/>
      <point x="210" y="-5" type="qcurve" smooth="yes"/>
      <point x="33" y="-5"/>
      <point x="33" y="174" type="qcurve" smooth="yes"/>
      <point x="33" y="299"/>
      <point x="151" y="357" type="qcurve" smooth="no"/>
      <point x="113" y="406"/>
    </contour>
    <contour>
      <point x="219" y="241" type="qcurve" smooth="no"/>
      <point x="203" y="217"/>
      <point x="203" y="195" type="qcurve" smooth="yes"/>
      <point x="203" y="162"/>
      <point x="235" y="162" type="qcurve" smooth="yes"/>
      <point x="268" y="162"/>
      <point x="295" y="190" type="qcurve" smooth="no"/>
      <point x="271" y="205"/>
    </contour>
  </outline>
</glyph>
<glyph name="parenleft" format="1">
  <advance width="357"/>
  <unicode hex="0028"/>
  <outline>
    <contour>
      <point x="330" y="727" type="qcurve" smooth="no"/>
      <point x="311" y="580" type="line" smooth="no"/>
      <point x="290" y="576"/>
      <point x="255" y="544" type="qcurve" smooth="yes"/>
      <point x="216" y="508"/>
      <point x="202" y="472" type="qcurve" smooth="yes"/>
      <point x="168" y="389"/>
      <point x="168" y="315" type="qcurve" smooth="yes"/>
      <point x="168" y="276"/>
      <point x="179" y="220" type="qcurve" smooth="yes"/>
      <point x="188" y="171"/>
      <point x="221" y="126" type="qcurve" smooth="yes"/>
      <point x="244" y="94"/>
      <point x="262" y="82" type="qcurve" smooth="no"/>
      <point x="239" y="-56" type="line" smooth="no"/>
      <point x="193" y="-40"/>
      <point x="144" y="9" type="qcurve" smooth="no"/>
      <point x="84" y="72"/>
      <point x="60" y="153" type="qcurve" smooth="yes"/>
      <point x="35" y="239"/>
      <point x="35" y="315" type="qcurve" smooth="yes"/>
      <point x="35" y="430"/>
      <point x="96" y="558" type="qcurve" smooth="no"/>
      <point x="172" y="699"/>
    </contour>
  </outline>
</glyph>
<glyph name="parenright" format="1">
  <advance width="394"/>
  <unicode hex="0029"/>
  <outline>
    <contour>
      <point x="25" y="-47" type="qcurve" smooth="no"/>
      <point x="49" y="99" type="line" smooth="no"/>
      <point x="71" y="102"/>
      <point x="146" y="167"/>
      <point x="162" y="204" type="qcurve" smooth="yes"/>
      <point x="201" y="291"/>
      <point x="201" y="372" type="qcurve" smooth="yes"/>
      <point x="201" y="406"/>
      <point x="187" y="503"/>
      <point x="155" y="550" type="qcurve" smooth="yes"/>
      <point x="133" y="583"/>
      <point x="115" y="596" type="qcurve" smooth="no"/>
      <point x="144" y="732" type="line" smooth="no"/>
      <point x="189" y="715"/>
      <point x="236" y="664" type="qcurve" smooth="no"/>
      <point x="294" y="599"/>
      <point x="315" y="517" type="qcurve" smooth="yes"/>
      <point x="334" y="439"/>
      <point x="334" y="372" type="qcurve" smooth="yes"/>
      <point x="334" y="248"/>
      <point x="265" y="113" type="qcurve" smooth="no"/>
      <point x="184" y="-24"/>
    </contour>
  </outline>
</glyph>
<glyph name="plus" format="1">
  <advance width="523"/>
  <unicode hex="002b"/>
  <outline>
    <contour>
      <point x="333" y="225" type="line" smooth="no"/>
      <point x="455" y="229" type="line" smooth="no"/>
      <point x="429" y="111" type="line" smooth="no"/>
      <point x="314" y="108" type="line" smooth="no"/>
      <point x="292" y="-5" type="line" smooth="no"/>
      <point x="163" y="-11" type="line" smooth="no"/>
      <point x="190" y="106" type="line" smooth="no"/>
      <point x="50" y="105" type="line" smooth="no"/>
      <point x="79" y="210" type="line" smooth="no"/>
      <point x="208" y="215" type="line" smooth="no"/>
      <point x="227" y="329" type="line" smooth="no"/>
      <point x="350" y="335" type="line" smooth="no"/>
    </contour>
  </outline>
</glyph>
<glyph name="comma" format="1">
  <advance width="281"/>
  <unicode hex="002c"/>
  <outline>
    <contour>
      <point x="210" y="-48" type="qcurve" smooth="no"/>
      <point x="196" y="-88"/>
      <point x="180" y="-110" type="qcurve" smooth="no"/>
      <point x="134" y="-116"/>
      <point x="107" y="-113" type="qcurve" smooth="no"/>
      <point x="131" y="5" type="line" smooth="no"/>
      <point x="114" y="4"/>
      <point x="48" y="4" type="qcurve" smooth="no"/>
      <point x="49" y="57"/>
      <point x="57" y="152" type="qcurve" smooth="no"/>
      <point x="105" y="153"/>
      <point x="210" y="160" type="qcurve" smooth="no"/>
      <point x="208" y="138"/>
      <point x="213" y="105" type="qcurve" smooth="yes"/>
      <point x="220" y="49" type="line" smooth="no"/>
      <point x="217" y="-13"/>
    </contour>
  </outline>
</glyph>
<glyph name="hyphen" format="1">
  <advance width="361"/>
  <unicode hex="002d"/>
  <outline>
    <contour>
      <point x="303" y="249" type="line" smooth="no"/>
      <point x="288" y="116" type="line" smooth="no"/>
      <point x="61" y="101" type="line" smooth="no"/>
      <point x="72" y="224" type="line" smooth="no"/>
    </contour>
  </outline>
</glyph>
<glyph name="slash" format="1">
  <advance width="494"/>
  <unicode hex="002f"/>
  <outline>
    <contour>
      <point x="188" y="-22" type="line" smooth="no"/>
      <point x="48" y="26" type="line" smooth="no"/>
      <point x="299" y="648" type="line" smooth="no"/>
      <point x="440" y="614" type="line" smooth="no"/>
    </contour>
  </outline>
</glyph>
<glyph name="zero" format="1">
  <advance width="482"/>
  <unicode hex="0030"/>
  <outline>
    <contour>
      <point x="464" y="499" type="qcurve" smooth="yes"/>
      <point x="463" y="477"/>
      <point x="446" y="350" type="qcurve" smooth="yes"/>
      <point x="427" y="206"/>
      <point x="415" y="135" type="qcurve" smooth="yes"/>
      <point x="409" y="100"/>
      <point x="400" y="82" type="qcurve" smooth="yes"/>
      <point x="378" y="40"/>
      <point x="307" y="5" type="qcurve" smooth="yes"/>
      <point x="243" y="-27"/>
      <point x="203" y="-27" type="qcurve" smooth="yes"/>
      <point x="147" y="-27"/>
      <point x="96" y="3" type="qcurve" smooth="yes"/>
      <point x="37" y="39"/>
      <point x="37" y="95" type="qcurve" smooth="yes"/>
      <point x="37" y="124"/>
      <point x="74" y="437" type="qcurve" smooth="no"/>
      <point x="128" y="615"/>
      <point x="320" y="625" type="qcurve" smooth="no"/>
      <point x="373" y="625"/>
      <point x="417" y="592" type="qcurve" smooth="yes"/>
      <point x="468" y="554"/>
    </contour>
    <contour>
      <point x="271" y="443" type="qcurve" smooth="yes"/>
      <point x="257" y="443"/>
      <point x="231" y="416"/>
      <point x="229" y="400" type="qcurve" smooth="yes"/>
      <point x="212" y="270"/>
      <point x="204" y="183" type="qcurve" smooth="yes"/>
      <point x="201" y="157"/>
      <point x="228" y="157" type="qcurve" smooth="no"/>
      <point x="236" y="158"/>
      <point x="242" y="159" type="qcurve" smooth="yes"/>
      <point x="258" y="163"/>
      <point x="263" y="173" type="qcurve" smooth="no"/>
      <point x="300" y="436" type="line" smooth="no"/>
      <point x="289" y="442"/>
    </contour>
  </outline>
</glyph>
<glyph name="five" format="1">
  <advance width="492"/>
  <unicode hex="0035"/>
  <outline>
    <contour>
      <point x="457" y="468" type="line" smooth="no"/>
      <point x="269" y="464" type="line" smooth="no"/>
      <point x="259" y="435"/>
      <point x="258" y="414" type="qcurve" smooth="no"/>
      <point x="281" y="425"/>
      <point x="322" y="419" type="qcurve" smooth="no"/>
      <point x="438" y="407"/>
      <point x="435" y="309" type="qcurve" smooth="no"/>
      <point x="410" y="127" type="line" smooth="no"/>
      <point x="388" y="53"/>
      <point x="317" y="15" type="qcurve" smooth="no"/>
      <point x="252" y="-21"/>
      <point x="165" y="-18" type="qcurve" smooth="no"/>
      <point x="19" y="-5"/>
      <point x="29" y="82" type="qcurve" smooth="yes"/>
      <point x="39" y="172"/>
      <point x="45" y="185" type="qcurve" smooth="no"/>
      <point x="87" y="195"/>
      <point x="187" y="195" type="qcurve" smooth="no"/>
      <point x="183" y="176"/>
      <point x="182" y="161" type="qcurve" smooth="yes"/>
      <point x="181" y="138"/>
      <point x="210" y="137" type="qcurve" smooth="no"/>
      <point x="218" y="138"/>
      <point x="225" y="141" type="qcurve" smooth="yes"/>
      <point x="241" y="148"/>
      <point x="249" y="166" type="qcurve" smooth="no"/>
      <point x="270" y="253" type="line" smooth="yes"/>
      <point x="278" y="288"/>
      <point x="241" y="289" type="qcurve" smooth="yes"/>
      <point x="231" y="289"/>
      <point x="223" y="285" type="qcurve" smooth="yes"/>
      <point x="203" y="277"/>
      <point x="193" y="255" type="qcurve" smooth="no"/>
      <point x="56" y="253" type="line" smooth="no"/>
      <point x="117" y="619" type="line" smooth="no"/>
      <point x="290" y="618"/>
      <point x="474" y="618" type="qcurve" smooth="no"/>
    </contour>
  </outline>
</glyph>
<glyph name="eight" format="1">
  <advance width="476"/>
  <unicode hex="0038"/>
  <outline>
    <contour>
      <point x="292" y="376" type="qcurve" smooth="yes"/>
      <point x="306" y="388"/>
      <point x="306" y="425" type="qcurve" smooth="yes"/>
      <point x="306" y="457"/>
      <point x="274" y="457" type="qcurve" smooth="yes"/>
      <point x="250" y="457"/>
      <point x="226" y="420"/>
      <point x="226" y="399" type="qcurve" smooth="yes"/>
      <point x="226" y="374"/>
      <point x="246" y="354" type="qcurve" smooth="no"/>
      <point x="287" y="371"/>
    </contour>
    <contour>
      <point x="416" y="112" type="qcurve" smooth="no"/>
      <point x="402" y="62"/>
      <point x="347" y="22" type="qcurve" smooth="yes"/>
      <point x="279" y="-27"/>
      <point x="180" y="-27" type="qcurve" smooth="no"/>
      <point x="137" y="-25"/>
      <point x="106" y="-14" type="qcurve" smooth="yes"/>
      <point x="33" y="12"/>
      <point x="32" y="76" type="qcurve" smooth="no"/>
      <point x="47" y="193"/>
      <point x="55" y="232" type="qcurve" smooth="no"/>
      <point x="58" y="257"/>
      <point x="111" y="301" type="qcurve" smooth="no"/>
      <point x="80" y="323"/>
      <point x="78" y="348" type="qcurve" smooth="yes"/>
      <point x="74" y="417"/>
      <point x="83" y="462" type="qcurve" smooth="no"/>
      <point x="103" y="522"/>
      <point x="170" y="563" type="qcurve" smooth="yes"/>
      <point x="231" y="601"/>
      <point x="290" y="601" type="qcurve" smooth="yes"/>
      <point x="344" y="601"/>
      <point x="427" y="563"/>
      <point x="442" y="530" type="qcurve" smooth="no"/>
      <point x="454" y="483"/>
      <point x="453" y="455" type="qcurve" smooth="yes"/>
      <point x="452" y="414"/>
      <point x="441" y="355" type="qcurve" smooth="yes"/>
      <point x="433" y="307"/>
      <point x="387" y="279" type="qcurve" smooth="no"/>
      <point x="423" y="251"/>
      <point x="423" y="180" type="qcurve" smooth="yes"/>
      <point x="423" y="146"/>
    </contour>
    <contour>
      <point x="203" y="215" type="qcurve" smooth="yes"/>
      <point x="193" y="203"/>
      <point x="190" y="165" type="qcurve" smooth="yes"/>
      <point x="189" y="155"/>
      <point x="209" y="140"/>
      <point x="220" y="140" type="qcurve" smooth="yes"/>
      <point x="272" y="140"/>
      <point x="272" y="188" type="qcurve" smooth="yes"/>
      <point x="272" y="199"/>
      <point x="255" y="233" type="qcurve" smooth="no"/>
      <point x="205" y="216"/>
    </contour>
  </outline>
</glyph>
<glyph name="less" format="1">
  <advance width="418"/>
  <unicode hex="003c"/>
  <outline>
    <contour>
      <point x="270" y="234" type="line" smooth="no"/>
      <point x="341" y="147" type="line" smooth="no"/>
      <point x="306" y="-2" type="line" smooth="no"/>
      <point x="51" y="249" type="line" smooth="no"/>
      <point x="388" y="464" type="line" smooth="no"/>
      <point x="356" y="289" type="line" smooth="no"/>
    </contour>
  </outline>
</glyph>
<glyph name="equal" format="1">
  <advance width="373"/>
  <unicode hex="003d"/>
  <outline>
    <contour>
      <point x="325" y="193" type="line" smooth="no"/>
      <point x="310" y="70" type="line" smooth="no"/>
      <point x="61" y="53" type="line" smooth="no"/>
      <point x="72" y="166" type="line" smooth="no"/>
    </contour>
    <contour>
      <point x="325" y="351" type="line" smooth="no"/>
      <point x="310" y="228" type="line" smooth="no"/>
      <point x="61" y="210" type="line" smooth="no"/>
      <point x="72" y="324" type="line" smooth="no"/>
    </contour>
  </outline>
</glyph>
<glyph name="question" format="1">
  <advance width="485"/>
  <unicode hex="003f"/>
  <outline>
    <contour>
      <point x="169" y="413" type="qcurve" smooth="no"/>
      <point x="49" y="489" type="line" smooth="no"/>
      <point x="62" y="535"/>
      <point x="87" y="568" type="qcurve" smooth="yes"/>
      <point x="146" y="647"/>
      <point x="256" y="647" type="qcurve" smooth="yes"/>
      <point x="367" y="647"/>
      <point x="412" y="574" type="qcurve" smooth="yes"/>
      <point x="437" y="533"/>
      <point x="437" y="476" type="qcurve" smooth="yes"/>
      <point x="437" y="396"/>
      <point x="355" y="316" type="qcurve" smooth="yes"/>
      <point x="308" y="269"/>
      <point x="280" y="209" type="qcurve" smooth="no"/>
      <point x="263" y="175"/>
      <point x="264" y="165" type="qcurve" smooth="no"/>
      <point x="104" y="155" type="line" smooth="no"/>
      <point x="109" y="183"/>
      <point x="115" y="206" type="qcurve" smooth="yes"/>
      <point x="131" y="263"/>
      <point x="151" y="286" type="qcurve" smooth="yes"/>
      <point x="230" y="374" type="line" smooth="yes"/>
      <point x="281" y="433"/>
      <point x="281" y="451" type="qcurve" smooth="yes"/>
      <point x="281" y="470"/>
      <point x="268" y="482" type="qcurve" smooth="yes"/>
      <point x="257" y="491"/>
      <point x="243" y="491" type="qcurve" smooth="yes"/>
      <point x="213" y="491"/>
      <point x="192" y="459" type="qcurve" smooth="yes"/>
      <point x="186" y="451"/>
    </contour>
    <contour>
      <point x="258" y="131" type="line" smooth="no"/>
      <point x="99" y="122" type="line" smooth="no"/>
      <point x="82" y="-4" type="line" smooth="no"/>
      <point x="234" y="2" type="line" smooth="no"/>
    </contour>
  </outline>
</glyph>
<glyph name="D" format="1">
  <advance width="514"/>
  <unicode hex="0044"/>
  <outline>
    <contour>
      <point x="198" y="156" type="line" smooth="no"/>
      <point x="273" y="174"/>
      <point x="287" y="239" type="qcurve" smooth="yes"/>
      <point x="320" y="391"/>
      <point x="319" y="462" type="qcurve" smooth="yes"/>
      <point x="319" y="484"/>
      <point x="277" y="507"/>
      <point x="246" y="505" type="qcurve" smooth="no"/>
    </contour>
    <contour>
      <point x="364" y="644" type="qcurve" smooth="no"/>
      <point x="439" y="630"/>
      <point x="464" y="547" type="qcurve" smooth="yes"/>
      <point x="479" y="497"/>
      <point x="478" y="397" type="qcurve" smooth="yes"/>
      <point x="476" y="191"/>
      <point x="357" y="56" type="qcurve" smooth="no"/>
      <point x="304" y="12"/>
      <point x="194" y="3" type="qcurve" smooth="no"/>
      <point x="19" y="-1" type="line" smooth="no"/>
      <point x="125" y="646" type="line" smooth="no"/>
      <point x="264" y="644"/>
    </contour>
  </outline>
</glyph>
<glyph name="G" format="1">
  <advance width="483"/>
  <unicode hex="0047"/>
  <outline>
    <contour>
      <point x="438" y="403" type="qcurve" smooth="no"/>
      <point x="306" y="406" type="line" smooth="no"/>
      <point x="308" y="420"/>
      <point x="308" y="431" type="qcurve" smooth="no"/>
      <point x="310" y="444"/>
      <point x="299" y="459" type="qcurve" smooth="yes"/>
      <point x="286" y="478"/>
      <point x="268" y="478" type="qcurve" smooth="yes"/>
      <point x="250" y="478"/>
      <point x="219" y="441"/>
      <point x="216" y="417" type="qcurve" smooth="yes"/>
      <point x="192" y="239"/>
      <point x="192" y="191" type="qcurve" smooth="yes"/>
      <point x="192" y="178"/>
      <point x="213" y="161"/>
      <point x="226" y="161" type="qcurve" smooth="no"/>
      <point x="290" y="167"/>
      <point x="289" y="244" type="qcurve" smooth="no"/>
      <point x="251" y="247" type="line" smooth="no"/>
      <point x="271" y="318" type="line" smooth="no"/>
      <point x="427" y="320" type="line" smooth="no"/>
      <point x="404" y="159" type="line" smooth="no"/>
      <point x="361" y="-9"/>
      <point x="191" y="-9" type="qcurve" smooth="yes"/>
      <point x="37" y="-9"/>
      <point x="37" y="141" type="qcurve" smooth="yes"/>
      <point x="37" y="202"/>
      <point x="53" y="298" type="qcurve" smooth="no"/>
      <point x="77" y="452"/>
      <point x="78" y="455" type="qcurve" smooth="yes"/>
      <point x="104" y="540"/>
      <point x="173" y="588" type="qcurve" smooth="yes"/>
      <point x="231" y="629"/>
      <point x="293" y="629" type="qcurve" smooth="yes"/>
      <point x="420" y="629"/>
      <point x="447" y="501" type="qcurve" smooth="no"/>
      <point x="447" y="481"/>
    </contour>
  </outline>
</glyph>
<glyph name="H" format="1">
  <advance width="539"/>
  <unicode hex="0048"/>
  <outline>
    <contour>
      <point x="410" y="0" type="line" smooth="no"/>
      <point x="266" y="0" type="line" smooth="no"/>
      <point x="303" y="227" type="line" smooth="no"/>
      <point x="207" y="222" type="line" smooth="no"/>
      <point x="168" y="-1" type="line" smooth="no"/>
      <point x="30" y="-2" type="line" smooth="no"/>
      <point x="64" y="189"/>
      <point x="133" y="633" type="qcurve" smooth="no"/>
      <point x="277" y="634" type="line" smooth="no"/>
      <point x="237" y="374" type="line" smooth="no"/>
      <point x="289" y="364"/>
      <point x="321" y="375" type="qcurve" smooth="no"/>
      <point x="323" y="385"/>
      <point x="364" y="635" type="qcurve" smooth="no"/>
      <point x="512" y="635" type="line" smooth="no"/>
    </contour>
  </outline>
</glyph>
<glyph name="N" format="1">
  <advance width="559"/>
  <unicode hex="004e"/>
  <outline>
    <contour>
      <point x="421" y="-3" type="line" smooth="no"/>
      <point x="261" y="-1" type="line" smooth="no"/>
      <point x="303" y="194" type="line" smooth="no"/>
      <point x="247" y="297" type="line" smooth="no"/>
      <point x="189" y="-3" type="line" smooth="no"/>
      <point x="34" y="-6" type="line" smooth="no"/>
      <point x="145" y="640" type="line" smooth="no"/>
      <point x="270" y="637" type="line" smooth="no"/>
      <point x="350" y="464" type="line" smooth="no"/>
      <point x="381" y="633" type="line" smooth="no"/>
      <point x="535" y="628" type="line" smooth="no"/>
    </contour>
  </outline>
</glyph>
<glyph name="R" format="1">
  <advance width="578"/>
  <unicode hex="0052"/>
  <outline>
    <contour>
      <point x="200" y="0" type="line" smooth="no"/>
      <point x="28" y="2" type="line" smooth="no"/>
      <point x="158" y="627" type="line" smooth="no"/>
      <point x="316" y="633"/>
      <point x="385" y="629" type="qcurve" smooth="no"/>
      <point x="541" y="630"/>
      <point x="541" y="454" type="qcurve" smooth="no"/>
      <point x="538" y="418"/>
      <point x="525" y="385" type="qcurve" smooth="yes"/>
      <point x="493" y="304"/>
      <point x="414" y="248" type="qcurve" smooth="no"/>
      <point x="525" y="-5" type="line" smooth="no"/>
      <point x="353" y="-6" type="line" smooth="no"/>
      <point x="291" y="212" type="line" smooth="no"/>
      <point x="238" y="203" type="line" smooth="no"/>
    </contour>
    <contour>
      <point x="368" y="444" type="qcurve" smooth="no"/>
      <point x="368" y="485"/>
      <point x="322" y="485" type="qcurve" smooth="yes"/>
      <point x="319" y="485"/>
      <point x="289" y="479" type="qcurve" smooth="no"/>
      <point x="261" y="329" type="line" smooth="no"/>
      <point x="353" y="356"/>
    </contour>
  </outline>
</glyph>
<glyph name="Z" format="1">
  <advance width="517"/>
  <unicode hex="005a"/>
  <outline>
    <contour>
      <point x="455" y="454" type="line" smooth="no"/>
      <point x="237" y="154" type="line" smooth="no"/>
      <point x="393" y="153" type="line" smooth="no"/>
      <point x="360" y="-4" type="line" smooth="no"/>
      <point x="30" y="-2" type="line" smooth="no"/>
      <point x="62" y="197" type="line" smooth="no"/>
      <point x="269" y="487" type="line" smooth="no"/>
      <point x="120" y="483" type="line" smooth="no"/>
      <point x="150" y="636" type="line" smooth="no"/>
      <point x="489" y="631" type="line" smooth="no"/>
    </contour>
  </outline>
</glyph>
<glyph name="bracketleft" format="1">
  <advance width="306"/>
  <unicode hex="005b"/>
  <outline>
    <contour>
      <point x="228" y="-68" type="line" smooth="no"/>
      <point x="177" y="-58"/>
      <point x="141" y="-37" type="qcurve" smooth="yes"/>
      <point x="54" y="14"/>
      <point x="55" y="114" type="qcurve" smooth="no"/>
      <point x="62" y="333"/>
      <point x="70" y="553" type="qcurve" smooth="no"/>
      <point x="76" y="653"/>
      <point x="167" y="697" type="qcurve" smooth="yes"/>
      <point x="205" y="716"/>
      <point x="256" y="722" type="qcurve" smooth="no"/>
      <point x="247" y="560" type="line" smooth="no"/>
      <point x="208" y="556"/>
      <point x="204" y="496" type="qcurve" smooth="no"/>
      <point x="193" y="161" type="line" smooth="yes"/>
      <point x="192" y="101"/>
      <point x="231" y="95" type="qcurve" smooth="no"/>
      <point x="228" y="-68" type="line" smooth="no"/>
    </contour>
  </outline>
</glyph>
<glyph name="grave" format="1">
  <advance width="250"/>
  <unicode hex="0060"/>
  <outline>
    <contour>
      <point x="214" y="596" type="line" smooth="no"/>
      <point x="63" y="589" type="line" smooth="no"/>
      <point x="36" y="695" type="line" smooth="no"/>
      <point x="185" y="695" type="line" smooth="no"/>
    </contour>
  </outline>
</glyph>
<glyph name="a" format="1">
  <advance width="604"/>
  <unicode hex="0061"/>
  <outline>
    <contour>
      <point x="358" y="392" type="line" smooth="no"/>
      <point x="290" y="231" type="line" smooth="no"/>
      <point x="370" y="225" type="line" smooth="no"/>
    </contour>
    <contour>
      <point x="222" y="112" type="line" smooth="no"/>
      <point x="164" y="-1" type="line" smooth="no"/>
      <point x="-22" y="-3" type="line" smooth="no"/>
      <point x="285" y="569"/>
      <point x="315" y="643" type="qcurve" smooth="no"/>
      <point x="501" y="644" type="line" smooth="no"/>
      <point x="547" y="9" type="line" smooth="no"/>
      <point x="387" y="4" type="line" smooth="no"/>
      <point x="379" y="109" type="line" smooth="no"/>
    </contour>
  </outline>
</glyph>
<glyph name="f" format="1">
  <advance width="473"/>
  <unicode hex="0066"/>
  <outline>
    <contour>
      <point x="416" y="498" type="line" smooth="no"/>
      <point x="272" y="494" type="line" smooth="no"/>
      <point x="257" y="390" type="line" smooth="no"/>
      <point x="400" y="393" type="line" smooth="no"/>
      <point x="380" y="258" type="line" smooth="no"/>
      <point x="234" y="256" type="line" smooth="no"/>
      <point x="189" y="3" type="line" smooth="no"/>
      <point x="37" y="-1" type="line" smooth="no"/>
      <point x="107" y="415"/>
      <point x="138" y="639" type="qcurve" smooth="no"/>
      <point x="162" y="639"/>
      <point x="435" y="637" type="qcurve" smooth="no"/>
    </contour>
  </outline>
</glyph>
<glyph name="q" format="1">
  <advance width="511"/>
  <unicode hex="0071"/>
  <outline>
    <contour>
      <point x="498" y="17" type="qcurve" smooth="no"/>
      <point x="492" y="16" type="line" smooth="yes"/>
      <point x="446" y="8"/>
      <point x="351" y="-7" type="qcurve" smooth="no"/>
      <point x="315" y="50" type="line" smooth="no"/>
      <point x="269" y="-5"/>
      <point x="181" y="-10" type="qcurve" smooth="no"/>
      <point x="97" y="-10"/>
      <point x="54" y="49" type="qcurve" smooth="no"/>
      <point x="27" y="88"/>
      <point x="27" y="121" type="qcurve" smooth="yes"/>
      <point x="27" y="172"/>
      <point x="51" y="289" type="qcurve" smooth="no"/>
      <point x="84" y="442"/>
      <point x="87" y="463" type="qcurve" smooth="yes"/>
      <point x="95" y="518"/>
      <point x="214" y="610"/>
      <point x="279" y="610" type="qcurve" smooth="yes"/>
      <point x="346" y="610"/>
      <point x="438" y="525"/>
      <point x="438" y="458" type="qcurve" smooth="no"/>
      <point x="437" y="421"/>
      <point x="433" y="375" type="qcurve" smooth="yes"/>
      <point x="425" y="264"/>
      <point x="403" y="129" type="qcurve" smooth="no"/>
      <point x="458" y="75"/>
    </contour>
    <contour>
      <point x="310" y="390" type="line" smooth="yes"/>
      <point x="318" y="455"/>
      <point x="272" y="455" type="qcurve" smooth="yes"/>
      <point x="234" y="455"/>
      <point x="223" y="379" type="qcurve" smooth="yes"/>
      <point x="221" y="369"/>
      <point x="192" y="166" type="qcurve" smooth="no"/>
      <point x="222" y="164"/>
      <point x="255" y="164" type="qcurve" smooth="yes"/>
      <point x="259" y="164"/>
      <point x="281" y="161" type="qcurve" smooth="no"/>
    </contour>
  </outline>
</glyph>
<glyph name="s" format="1">
  <advance width="470"/>
  <unicode hex="0073"/>
  <outline>
    <contour>
      <point x="439" y="432" type="qcurve" smooth="no"/>
      <point x="322" y="428" type="line" smooth="no"/>
      <point x="320" y="477"/>
      <point x="278" y="482" type="qcurve" smooth="no"/>
      <point x="255" y="482"/>
      <point x="222" y="445"/>
      <point x="222" y="430" type="qcurve" smooth="yes"/>
      <point x="222" y="397"/>
      <point x="350" y="317" type="line" smooth="no"/>
      <point x="399" y="277"/>
      <point x="409" y="217" type="qcurve" smooth="no"/>
      <point x="404" y="162"/>
      <point x="377" y="93" type="qcurve" smooth="yes"/>
      <point x="365" y="60"/>
      <point x="319" y="32" type="qcurve" smooth="yes"/>
      <point x="263" y="-1"/>
      <point x="191" y="-1" type="qcurve" smooth="yes"/>
      <point x="120" y="-1"/>
      <point x="74" y="30" type="qcurve" smooth="yes"/>
      <point x="37" y="54"/>
      <point x="37" y="77" type="qcurve" smooth="yes"/>
      <point x="37" y="90"/>
      <point x="56" y="210" type="qcurve" smooth="no"/>
      <point x="177" y="209" type="line" smooth="no"/>
      <point x="171" y="187"/>
      <point x="170" y="174" type="qcurve" smooth="no"/>
      <point x="170" y="136"/>
      <point x="207" y="136" type="qcurve" smooth="yes"/>
      <point x="261" y="136"/>
      <point x="261" y="223" type="qcurve" smooth="no"/>
      <point x="252" y="254"/>
      <point x="170" y="309" type="qcurve" smooth="yes"/>
      <point x="91" y="361"/>
      <point x="90" y="389" type="qcurve" smooth="no"/>
      <point x="94" y="425"/>
      <point x="110" y="503" type="qcurve" smooth="no"/>
      <point x="125" y="556"/>
      <point x="194" y="591" type="qcurve" smooth="yes"/>
      <point x="248" y="619"/>
      <point x="291" y="619" type="qcurve" smooth="yes"/>
      <point x="340" y="619"/>
      <point x="382" y="596" type="qcurve" smooth="yes"/>
      <point x="430" y="570"/>
      <point x="440" y="525" type="qcurve" smooth="yes"/>
      <point x="446" y="494"/>
    </contour>
  </outline>
</glyph>
<glyph name="t" format="1">
  <advance width="479"/>
  <unicode hex="0074"/>
  <outline>
    <contour>
      <point x="432" y="492" type="line" smooth="no"/>
      <point x="332" y="489" type="line" smooth="no"/>
      <point x="257" y="1" type="line" smooth="no"/>
      <point x="95" y="-4" type="line" smooth="no"/>
      <point x="165" y="482" type="line" smooth="no"/>
      <point x="38" y="479" type="line" smooth="no"/>
      <point x="62" y="621" type="line" smooth="no"/>
      <point x="451" y="631" type="line" smooth="no"/>
    </contour>
  </outline>
</glyph>
<glyph name="x" format="1">
  <advance width="596"/>
  <unicode hex="0078"/>
  <outline>
    <contour>
      <point x="351" y="300" type="line" smooth="no"/>
      <point x="431" y="8" type="line" smooth="no"/>
      <point x="276" y="-1" type="line" smooth="no"/>
      <point x="236" y="127" type="line" smooth="no"/>
      <point x="154" y="-8" type="line" smooth="no"/>
      <point x="-34" y="-13" type="line" smooth="no"/>
      <point x="192" y="316" type="line" smooth="no"/>
      <point x="91" y="637" type="line" smooth="no"/>
      <point x="249" y="638" type="line" smooth="no"/>
      <point x="299" y="474" type="line" smooth="no"/>
      <point x="421" y="643" type="line" smooth="no"/>
      <point x="611" y="647" type="line" smooth="no"/>
    </contour>
  </outline>
</glyph>
<glyph name="braceright" format="1">
  <advance width="354"/>
  <unicode hex="007d"/>
  <outline>
    <contour>
      <point x="92" y="149" type="line" smooth="no"/>
      <point x="111" y="224" type="line" smooth="yes"/>
      <point x="118" y="249"/>
      <point x="135" y="268" type="qcurve" smooth="yes"/>
      <point x="183" y="317" type="line" smooth="no"/>
      <point x="177" y="329"/>
      <point x="144" y="379" type="qcurve" smooth="yes"/>
      <point x="125" y="407"/>
      <point x="126" y="418" type="qcurve" smooth="yes"/>
      <point x="128" y="468"/>
      <point x="128" y="488" type="qcurve" smooth="yes"/>
      <point x="128" y="577"/>
      <point x="97" y="595" type="qcurve" smooth="no"/>
      <point x="111" y="729" type="line" smooth="no"/>
      <point x="161" y="715"/>
      <point x="196" y="692" type="qcurve" smooth="yes"/>
      <point x="279" y="635"/>
      <point x="272" y="535" type="qcurve" smooth="yes"/>
      <point x="270" y="515"/>
      <point x="268" y="476" type="qcurve" smooth="yes"/>
      <point x="266" y="449"/>
      <point x="328" y="303" type="qcurve" smooth="no"/>
      <point x="271" y="221" type="line" smooth="yes"/>
      <point x="232" y="165"/>
      <point x="231" y="154" type="qcurve" smooth="yes"/>
      <point x="226" y="98" type="line" smooth="no"/>
      <point x="216" y="-1"/>
      <point x="121" y="-39" type="qcurve" smooth="yes"/>
      <point x="82" y="-55"/>
      <point x="28" y="-58" type="qcurve" smooth="no"/>
      <point x="46" y="82" type="line" smooth="no"/>
      <point x="77" y="90"/>
      <point x="93" y="148" type="qcurve" smooth="no"/>
    </contour>
  </outline>
</glyph>
<glyph name="dieresis" format="1">
  <advance width="961"/>
  <unicode hex="00a8"/>
  <outline>
    <contour>
      <point x="353" y="598" type="line" smooth="no"/>
      <point x="210" y="592" type="line" smooth="no"/>
      <point x="237" y="689" type="line" smooth="no"/>
      <point x="371" y="695" type="line" smooth="no"/>
    </contour>
    <contour>
      <point x="591" y="699" type="line" smooth="no"/>
      <point x="574" y="596" type="line" smooth="no"/>
      <point x="444" y="590" type="line" smooth="no"/>
      <point x="457" y="695" type="line" smooth="no"/>
    </contour>
  </outline>
</glyph>
<glyph name="copyright" format="1">
  <advance width="662"/>
  <unicode hex="00a9"/>
  <outline>
    <contour>
      <point x="595" y="368" type="qcurve" smooth="yes"/>
      <point x="557" y="108"/>
      <point x="324" y="94" type="qcurve" smooth="yes"/>
      <point x="193" y="86"/>
      <point x="119" y="159" type="qcurve" smooth="yes"/>
      <point x="51" y="226"/>
      <point x="51" y="336" type="qcurve" smooth="yes"/>
      <point x="51" y="464"/>
      <point x="122" y="548" type="qcurve" smooth="yes"/>
      <point x="197" y="637"/>
      <point x="324" y="643" type="qcurve" smooth="no"/>
      <point x="454" y="648"/>
      <point x="529" y="578" type="qcurve" smooth="yes"/>
      <point x="598" y="513"/>
      <point x="598" y="410" type="qcurve" smooth="yes"/>
      <point x="598" y="389"/>
    </contour>
    <contour>
      <point x="475" y="489" type="qcurve" smooth="yes"/>
      <point x="475" y="511"/>
      <point x="461" y="531" type="qcurve" smooth="no"/>
      <point x="437" y="569"/>
      <point x="378" y="569" type="qcurve" smooth="yes"/>
      <point x="316" y="569"/>
      <point x="275" y="536" type="qcurve" smooth="no"/>
      <point x="241" y="510"/>
      <point x="233" y="474" type="qcurve" smooth="yes"/>
      <point x="204" y="335"/>
      <point x="204" y="257" type="qcurve" smooth="yes"/>
      <point x="204" y="166"/>
      <point x="303" y="166" type="qcurve" smooth="yes"/>
      <point x="355" y="166"/>
      <point x="394" y="206" type="qcurve" smooth="no"/>
      <point x="419" y="230"/>
      <point x="429" y="257" type="qcurve" smooth="yes"/>
      <point x="451" y="313"/>
      <point x="451" y="351" type="qcurve" smooth="no"/>
      <point x="354" y="344" type="line" smooth="no"/>
      <point x="354" y="288"/>
      <point x="321" y="288" type="qcurve" smooth="yes"/>
      <point x="299" y="288"/>
      <point x="305" y="323" type="qcurve" smooth="yes"/>
      <point x="321" y="411"/>
      <point x="327" y="435" type="qcurve" smooth="yes"/>
      <point x="333" y="463"/>
      <point x="354" y="463" type="qcurve" smooth="yes"/>
      <point x="369" y="463"/>
      <point x="368" y="421" type="qcurve" smooth="no"/>
      <point x="465" y="423" type="line" smooth="no"/>
      <point x="475" y="483"/>
    </contour>
  </outline>
</glyph>
<glyph name="guillemotleft" format="1">
  <advance width="561"/>
  <unicode hex="00ab"/>
  <outline>
    <contour>
      <point x="424" y="173" type="line" smooth="no"/>
      <point x="508" y="20" type="line" smooth="no"/>
      <point x="390" y="-26" type="line" smooth="no"/>
      <point x="281" y="197" type="line" smooth="no"/>
      <point x="391" y="383" type="line" smooth="no"/>
      <point x="515" y="375" type="line" smooth="no"/>
    </contour>
    <contour>
      <point x="193" y="173" type="line" smooth="no"/>
      <point x="278" y="20" type="line" smooth="no"/>
      <point x="159" y="-26" type="line" smooth="no"/>
      <point x="50" y="197" type="line" smooth="no"/>
      <point x="160" y="383" type="line" smooth="no"/>
      <point x="284" y="375" type="line" smooth="no"/>
    </contour>
  </outline>
</glyph>
<glyph name="degree" format="1">
  <advance width="319"/>
  <unicode hex="00b0"/>
  <outline>
    <contour>
      <point x="266" y="539" type="qcurve" smooth="yes"/>
      <point x="266" y="494"/>
      <point x="203" y="430"/>
      <point x="158" y="430" type="qcurve" smooth="yes"/>
      <point x="113" y="430"/>
      <point x="49" y="494"/>
      <point x="49" y="539" type="qcurve" smooth="yes"/>
      <point x="49" y="584"/>
      <point x="113" y="647"/>
      <point x="158" y="647" type="qcurve" smooth="yes"/>
      <point x="203" y="647"/>
      <point x="266" y="584"/>
    </contour>
    <contour>
      <point x="186" y="541" type="qcurve" smooth="yes"/>
      <point x="186" y="567"/>
      <point x="160" y="567" type="qcurve" smooth="yes"/>
      <point x="134" y="567"/>
      <point x="134" y="541" type="qcurve" smooth="yes"/>
      <point x="134" y="515"/>
      <point x="160" y="515" type="qcurve" smooth="yes"/>
      <point x="186" y="515"/>
    </contour>
  </outline>
</glyph>
<glyph name="acute" format="1">
  <advance width="273"/>
  <unicode hex="00b4"/>
  <outline>
    <contour>
      <point x="201" y="596" type="line" smooth="no"/>
      <point x="54" y="592" type="line" smooth="no"/>
      <point x="74" y="695" type="line" smooth="no"/>
      <point x="220" y="695" type="line" smooth="no"/>
    </contour>
  </outline>
</glyph>
<glyph name="cedilla" format="1">
  <advance width="961"/>
  <unicode hex="00b8"/>
  <outline>
    <contour>
      <point x="120" y="-29" type="qcurve" smooth="no"/>
      <point x="117" y="-20"/>
      <point x="117" y="0" type="qcurve" smooth="yes"/>
      <point x="117" y="8"/>
      <point x="125" y="37" type="qcurve" smooth="no"/>
      <point x="165" y="62"/>
      <point x="187" y="62" type="qcurve" smooth="yes"/>
      <point x="195" y="62"/>
      <point x="203" y="61" type="qcurve" smooth="no"/>
      <point x="230" y="49"/>
      <point x="236" y="23" type="qcurve" smooth="yes"/>
      <point x="237" y="19"/>
      <point x="237" y="-25" type="qcurve" smooth="yes"/>
      <point x="237" y="-56"/>
      <point x="184" y="-81" type="qcurve" smooth="no"/>
      <point x="175" y="-25"/>
      <point x="145" y="-25" type="qcurve" smooth="yes"/>
      <point x="137" y="-25"/>
    </contour>
  </outline>
</glyph>
<glyph name="guillemotright" format="1">
  <advance width="561"/>
  <unicode hex="00bb"/>
  <outline>
    <contour>
      <point x="50" y="375" type="line" smooth="no"/>
      <point x="174" y="383" type="line" smooth="no"/>
      <point x="284" y="197" type="line" smooth="no"/>
      <point x="175" y="-26" type="line" smooth="no"/>
      <point x="57" y="20" type="line" smooth="no"/>
      <point x="141" y="173" type="line" smooth="no"/>
    </contour>
    <contour>
      <point x="281" y="375" type="line" smooth="no"/>
      <point x="404" y="383" type="line" smooth="no"/>
      <point x="515" y="197" type="line" smooth="no"/>
      <point x="405" y="-26" type="line" smooth="no"/>
      <point x="287" y="20" type="line" smooth="no"/>
      <point x="372" y="173" type="line" smooth="no"/>
    </contour>
  </outline>
</glyph>
<glyph name="Agrave" format="1">
  <advance width="604"/>
  <unicode hex="00c0"/>
  <outline>
    <contour>
      <point x="358" y="392" type="line" smooth="no"/>
      <point x="290" y="231" type="line" smooth="no"/>
      <point x="370" y="225" type="line" smooth="no"/>
    </contour>
    <contour>
      <point x="222" y="112" type="line" smooth="no"/>
      <point x="164" y="-1" type="line" smooth="no"/>
      <point x="-22" y="-3" type="line" smooth="no"/>
      <point x="288" y="575"/>
      <point x="311" y="632" type="qcurve" smooth="no"/>
      <point x="290" y="710" type="line" smooth="no"/>
      <point x="427" y="710" type="line" smooth="no"/>
      <point x="449" y="631" type="line" smooth="no"/>
      <point x="501" y="632" type="line" smooth="no"/>
      <point x="547" y="9" type="line" smooth="no"/>
      <point x="387" y="4" type="line" smooth="no"/>
      <point x="379" y="109" type="line" smooth="no"/>
    </contour>
  </outline>
</glyph>
<glyph name="Aring" format="1">
  <advance width="604"/>
  <unicode hex="00c5"/>
  <outline>
    <contour>
      <point x="547" y="9" type="line" smooth="no"/>
      <point x="387" y="4" type="line" smooth="no"/>
      <point x="379" y="109" type="line" smooth="no"/>
      <point x="222" y="112" type="line" smooth="no"/>
      <point x="164" y="-1" type="line" smooth="no"/>
      <point x="-22" y="-3" type="line" smooth="no"/>
      <point x="293" y="576" type="line" smooth="no"/>
      <point x="285" y="592"/>
      <point x="288" y="613" type="qcurve" smooth="yes"/>
      <point x="292" y="647"/>
      <point x="319" y="673" type="qcurve" smooth="yes"/>
      <point x="351" y="703"/>
      <point x="398" y="703" type="qcurve" smooth="yes"/>
      <point x="444" y="703"/>
      <point x="507" y="643"/>
      <point x="507" y="594" type="qcurve" smooth="yes"/>
      <point x="507" y="570"/>
      <point x="494" y="552" type="qcurve" smooth="no"/>
    </contour>
    <contour>
      <point x="427" y="601" type="qcurve" smooth="yes"/>
      <point x="427" y="627"/>
      <point x="401" y="627" type="qcurve" smooth="yes"/>
      <point x="375" y="627"/>
      <point x="375" y="601" type="qcurve" smooth="yes"/>
      <point x="375" y="575"/>
      <point x="401" y="575" type="qcurve" smooth="yes"/>
      <point x="427" y="575"/>
    </contour>
    <contour>
      <point x="370" y="225" type="line" smooth="no"/>
      <point x="358" y="392" type="line" smooth="no"/>
      <point x="290" y="231" type="line" smooth="no"/>
    </contour>
  </outline>
</glyph>
<glyph name="Ograve" format="1">
  <advance width="488"/>
  <unicode hex="00d2"/>
  <outline>
    <contour>
      <point x="227" y="414" type="qcurve" smooth="no"/>
      <point x="226" y="414" type="line" smooth="no"/>
      <point x="218" y="391"/>
      <point x="200" y="284" type="qcurve" smooth="yes"/>
      <point x="183" y="183"/>
      <point x="183" y="169" type="qcurve" smooth="yes"/>
      <point x="183" y="138"/>
      <point x="213" y="138" type="qcurve" smooth="yes"/>
      <point x="242" y="138"/>
      <point x="256" y="154" type="qcurve" smooth="yes"/>
      <point x="267" y="166"/>
      <point x="267" y="181" type="qcurve" smooth="yes"/>
      <point x="267" y="185"/>
      <point x="266" y="194" type="qcurve" smooth="no"/>
      <point x="313" y="454" type="line" smooth="no"/>
      <point x="304" y="462"/>
      <point x="288" y="462" type="qcurve" smooth="yes"/>
      <point x="269" y="462"/>
      <point x="231" y="431"/>
    </contour>
    <contour>
      <point x="171" y="715" type="line" smooth="no"/>
      <point x="313" y="715" type="line" smooth="no"/>
      <point x="336" y="619" type="line" smooth="no"/>
      <point x="446" y="624"/>
      <point x="460" y="512" type="qcurve" smooth="no"/>
      <point x="437" y="369"/>
      <point x="395" y="130" type="qcurve" smooth="yes"/>
      <point x="385" y="76"/>
      <point x="351" y="37" type="qcurve" smooth="yes"/>
      <point x="301" y="-19"/>
      <point x="212" y="-19" type="qcurve" smooth="yes"/>
      <point x="43" y="-19"/>
      <point x="37" y="105" type="qcurve" smooth="yes"/>
      <point x="36" y="115"/>
      <point x="37" y="126" type="qcurve" smooth="yes"/>
      <point x="38" y="139"/>
      <point x="38" y="163"/>
      <point x="51" y="250" type="qcurve" smooth="yes"/>
      <point x="67" y="363"/>
      <point x="91" y="460" type="qcurve" smooth="yes"/>
      <point x="104" y="515"/>
      <point x="201" y="612"/>
      <point x="249" y="614" type="qcurve" smooth="no"/>
    </contour>
  </outline>
</glyph>
<glyph name="Ocircumflex" format="1">
  <advance width="488"/>
  <unicode hex="00d4"/>
  <outline>
    <contour>
      <point x="227" y="443" type="qcurve" smooth="no"/>
      <point x="226" y="443" type="line" smooth="no"/>
      <point x="218" y="420"/>
      <point x="200" y="303" type="qcurve" smooth="yes"/>
      <point x="183" y="193"/>
      <point x="183" y="178" type="qcurve" smooth="yes"/>
      <point x="183" y="148"/>
      <point x="213" y="148" type="qcurve" smooth="yes"/>
      <point x="242" y="148"/>
      <point x="256" y="164" type="qcurve" smooth="yes"/>
      <point x="267" y="176"/>
      <point x="267" y="190" type="qcurve" smooth="yes"/>
      <point x="267" y="195"/>
      <point x="266" y="204" type="qcurve" smooth="no"/>
      <point x="313" y="483" type="line" smooth="no"/>
      <point x="304" y="491"/>
      <point x="288" y="491" type="qcurve" smooth="yes"/>
      <point x="269" y="491"/>
      <point x="231" y="459"/>
    </contour>
    <contour>
      <point x="233" y="636" type="qcurve" smooth="no"/>
      <point x="242" y="699" type="line" smooth="no"/>
      <point x="375" y="768" type="line" smooth="no"/>
      <point x="488" y="720" type="line" smooth="no"/>
      <point x="449" y="638" type="line" smooth="no"/>
      <point x="352" y="680" type="line" smooth="no"/>
      <point x="340" y="672"/>
      <point x="328" y="663" type="qcurve" smooth="no"/>
      <point x="297" y="644"/>
      <point x="302" y="644" type="qcurve" smooth="yes"/>
      <point x="366" y="644"/>
      <point x="410" y="618" type="qcurve" smooth="yes"/>
      <point x="458" y="590"/>
      <point x="460" y="541" type="qcurve" smooth="no"/>
      <point x="404" y="194"/>
      <point x="385" y="86"/>
      <point x="351" y="47" type="qcurve" smooth="yes"/>
      <point x="301" y="-9"/>
      <point x="212" y="-9" type="qcurve" smooth="yes"/>
      <point x="43" y="-9"/>
      <point x="37" y="115" type="qcurve" smooth="yes"/>
      <point x="36" y="125"/>
      <point x="37" y="136" type="qcurve" smooth="yes"/>
      <point x="38" y="149"/>
      <point x="38" y="148" type="qcurve" smooth="no"/>
      <point x="38" y="175"/>
      <point x="51" y="269" type="qcurve" smooth="yes"/>
      <point x="67" y="393"/>
      <point x="91" y="489" type="qcurve" smooth="yes"/>
      <point x="103" y="537"/>
      <point x="185" y="627"/>
    </contour>
  </outline>
</glyph>
<glyph name="Odieresis" format="1">
  <advance width="503"/>
  <unicode hex="00d6"/>
  <outline>
    <contour>
      <point x="460" y="512" type="qcurve" smooth="no"/>
      <point x="437" y="369"/>
      <point x="394" y="130" type="qcurve" smooth="yes"/>
      <point x="385" y="76"/>
      <point x="350" y="37" type="qcurve" smooth="yes"/>
      <point x="300" y="-19"/>
      <point x="212" y="-19" type="qcurve" smooth="yes"/>
      <point x="42" y="-19"/>
      <point x="37" y="105" type="qcurve" smooth="yes"/>
      <point x="36" y="115"/>
      <point x="37" y="139"/>
      <point x="37" y="163"/>
      <point x="50" y="250" type="qcurve" smooth="yes"/>
      <point x="67" y="363"/>
      <point x="90" y="460" type="qcurve" smooth="yes"/>
      <point x="98" y="492"/>
      <point x="117" y="530" type="qcurve" smooth="yes"/>
      <point x="143" y="583"/>
      <point x="169" y="592" type="qcurve" smooth="no"/>
      <point x="109" y="592" type="line" smooth="no"/>
      <point x="113" y="636"/>
      <point x="121" y="700" type="qcurve" smooth="no"/>
      <point x="180" y="702"/>
      <point x="265" y="706" type="qcurve" smooth="no"/>
      <point x="255" y="655"/>
      <point x="252" y="618" type="qcurve" smooth="no"/>
      <point x="271" y="623"/>
      <point x="305" y="620" type="qcurve" smooth="yes"/>
      <point x="311" y="620"/>
      <point x="326" y="619" type="qcurve" smooth="no"/>
      <point x="336" y="706" type="line" smooth="no"/>
      <point x="482" y="711" type="line" smooth="no"/>
      <point x="474" y="622"/>
      <point x="471" y="597" type="qcurve" smooth="no"/>
      <point x="454" y="598"/>
      <point x="417" y="598" type="qcurve" smooth="no"/>
      <point x="455" y="574"/>
    </contour>
    <contour>
      <point x="226" y="414" type="qcurve" smooth="no"/>
      <point x="217" y="391"/>
      <point x="199" y="284" type="qcurve" smooth="yes"/>
      <point x="182" y="183"/>
      <point x="182" y="169" type="qcurve" smooth="yes"/>
      <point x="182" y="138"/>
      <point x="213" y="138" type="qcurve" smooth="yes"/>
      <point x="241" y="138"/>
      <point x="256" y="154" type="qcurve" smooth="yes"/>
      <point x="267" y="166"/>
      <point x="266" y="181" type="qcurve" smooth="yes"/>
      <point x="266" y="185"/>
      <point x="265" y="194" type="qcurve" smooth="no"/>
      <point x="312" y="454" type="line" smooth="no"/>
      <point x="303" y="462"/>
      <point x="288" y="462" type="qcurve" smooth="yes"/>
      <point x="268" y="462"/>
      <point x="231" y="431"/>
    </contour>
  </outline>
</glyph>
<glyph name="aacute" format="1">
  <advance width="604"/>
  <unicode hex="00e1"/>
  <outline>
    <contour>
      <point x="358" y="392" type="line" smooth="no"/>
      <point x="290" y="231" type="line" smooth="no"/>
      <point x="370" y="225" type="line" smooth="no"/>
    </contour>
    <contour>
      <point x="222" y="112" type="line" smooth="no"/>
      <point x="164" y="-1" type="line" smooth="no"/>
      <point x="-22" y="-3" type="line" smooth="no"/>
      <point x="285" y="568"/>
      <point x="310" y="632" type="qcurve" smooth="no"/>
      <point x="360" y="632" type="line" smooth="no"/>
      <point x="395" y="707" type="line" smooth="no"/>
      <point x="521" y="709" type="line" smooth="no"/>
      <point x="496" y="632" type="line" smooth="no"/>
      <point x="547" y="9" type="line" smooth="no"/>
      <point x="387" y="4" type="line" smooth="no"/>
      <point x="379" y="109" type="line" smooth="no"/>
    </contour>
  </outline>
</glyph>
<glyph name="atilde" format="1">
  <advance width="604"/>
  <unicode hex="00e3"/>
  <outline>
    <contour>
      <point x="358" y="392" type="line" smooth="no"/>
      <point x="290" y="231" type="line" smooth="no"/>
      <point x="370" y="225" type="line" smooth="no"/>
    </contour>
    <contour>
      <point x="243" y="689" type="line" smooth="no"/>
      <point x="258" y="699"/>
      <point x="292" y="706" type="qcurve" smooth="yes"/>
      <point x="318" y="712"/>
      <point x="331" y="712" type="qcurve" smooth="yes"/>
      <point x="396" y="712"/>
      <point x="465" y="685"/>
      <point x="514" y="685" type="qcurve" smooth="yes"/>
      <point x="529" y="685"/>
      <point x="545" y="694" type="qcurve" smooth="no"/>
      <point x="568" y="710" type="line" smooth="no"/>
      <point x="553" y="592" type="line" smooth="no"/>
      <point x="538" y="585"/>
      <point x="501" y="578" type="qcurve" smooth="no"/>
      <point x="547" y="9" type="line" smooth="no"/>
      <point x="387" y="4" type="line" smooth="no"/>
      <point x="379" y="109" type="line" smooth="no"/>
      <point x="222" y="112" type="line" smooth="no"/>
      <point x="164" y="-1" type="line" smooth="no"/>
      <point x="-22" y="-3" type="line" smooth="no"/>
      <point x="299" y="598" type="line" smooth="no"/>
      <point x="273" y="597"/>
      <point x="233" y="579" type="qcurve" smooth="no"/>
    </contour>
  </outline>
</glyph>
<glyph name="adieresis" format="1">
  <advance width="635"/>
  <unicode hex="00e4"/>
  <outline>
    <contour>
      <point x="358" y="392" type="line" smooth="no"/>
      <point x="290" y="231" type="line" smooth="no"/>
      <point x="370" y="225" type="line" smooth="no"/>
    </contour>
    <contour>
      <point x="457" y="705" type="line" smooth="no"/>
      <point x="592" y="710" type="line" smooth="no"/>
      <point x="575" y="595" type="line" smooth="no"/>
      <point x="505" y="592" type="line" smooth="no"/>
      <point x="547" y="9" type="line" smooth="no"/>
      <point x="387" y="4" type="line" smooth="no"/>
      <point x="379" y="109" type="line" smooth="no"/>
      <point x="222" y="112" type="line" smooth="no"/>
      <point x="164" y="-1" type="line" smooth="no"/>
      <point x="-22" y="-3" type="line" smooth="no"/>
      <point x="218" y="444"/>
      <point x="293" y="596" type="qcurve" smooth="no"/>
      <point x="208" y="593" type="line" smooth="no"/>
      <point x="237" y="700" type="line" smooth="no"/>
      <point x="372" y="705" type="line" smooth="no"/>
      <point x="362" y="644" type="line" smooth="no"/>
      <point x="450" y="644" type="line" smooth="no"/>
    </contour>
  </outline>
</glyph>
<glyph name="ccedilla" format="1">
  <advance width="495"/>
  <unicode hex="00e7"/>
  <outline>
    <contour>
      <point x="453" y="416" type="qcurve" smooth="no"/>
      <point x="334" y="414" type="line" smooth="no"/>
      <point x="338" y="436"/>
      <point x="340" y="451" type="qcurve" smooth="yes"/>
      <point x="343" y="472"/>
      <point x="334" y="491" type="qcurve" smooth="yes"/>
      <point x="324" y="514"/>
      <point x="304" y="514" type="qcurve" smooth="yes"/>
      <point x="280" y="514"/>
      <point x="262" y="478" type="qcurve" smooth="yes"/>
      <point x="248" y="449"/>
      <point x="244" y="413" type="qcurve" smooth="no"/>
      <point x="229" y="349"/>
      <point x="206" y="233" type="qcurve" smooth="no"/>
      <point x="204" y="216"/>
      <point x="204" y="203" type="qcurve" smooth="yes"/>
      <point x="204" y="151"/>
      <point x="241" y="151" type="qcurve" smooth="yes"/>
      <point x="262" y="151"/>
      <point x="280" y="177" type="qcurve" smooth="yes"/>
      <point x="294" y="198"/>
      <point x="297" y="216" type="qcurve" smooth="yes"/>
      <point x="298" y="225"/>
      <point x="304" y="266" type="qcurve" smooth="no"/>
      <point x="420" y="261" type="line" smooth="no"/>
      <point x="410" y="200"/>
      <point x="405" y="179" type="qcurve" smooth="no"/>
      <point x="362" y="52"/>
      <point x="237" y="21" type="qcurve" smooth="no"/>
      <point x="239" y="11"/>
      <point x="238" y="-3" type="qcurve" smooth="no"/>
      <point x="238" y="-25"/>
      <point x="238" y="-21" type="qcurve" smooth="no"/>
      <point x="236" y="-33"/>
      <point x="230" y="-44" type="qcurve" smooth="yes"/>
      <point x="216" y="-69"/>
      <point x="184" y="-80" type="qcurve" smooth="no"/>
      <point x="177" y="-29"/>
      <point x="146" y="-25" type="qcurve" smooth="yes"/>
      <point x="139" y="-25"/>
      <point x="119" y="-28" type="qcurve" smooth="no"/>
      <point x="113" y="-6"/>
      <point x="126" y="37" type="qcurve" smooth="no"/>
      <point x="43" y="60"/>
      <point x="51" y="190" type="qcurve" smooth="no"/>
      <point x="98" y="487" type="line" smooth="no"/>
      <point x="103" y="534"/>
      <point x="162" y="583" type="qcurve" smooth="yes"/>
      <point x="229" y="640"/>
      <point x="312" y="640" type="qcurve" smooth="yes"/>
      <point x="373" y="640"/>
      <point x="418" y="598" type="qcurve" smooth="yes"/>
      <point x="451" y="567"/>
      <point x="460" y="535" type="qcurve" smooth="no"/>
      <point x="466" y="500"/>
    </contour>
  </outline>
</glyph>
<glyph name="oacute" format="1">
  <advance width="488"/>
  <unicode hex="00f3"/>
  <outline>
    <contour>
      <point x="460" y="512" type="qcurve" smooth="no"/>
      <point x="437" y="369"/>
      <point x="395" y="130" type="qcurve" smooth="yes"/>
      <point x="385" y="76"/>
      <point x="351" y="37" type="qcurve" smooth="yes"/>
      <point x="301" y="-19"/>
      <point x="212" y="-19" type="qcurve" smooth="yes"/>
      <point x="43" y="-19"/>
      <point x="37" y="105" type="qcurve" smooth="yes"/>
      <point x="36" y="115"/>
      <point x="37" y="126" type="qcurve" smooth="yes"/>
      <point x="38" y="139"/>
      <point x="38" y="163"/>
      <point x="51" y="250" type="qcurve" smooth="yes"/>
      <point x="67" y="363"/>
      <point x="91" y="460" type="qcurve" smooth="yes"/>
      <point x="110" y="538"/>
      <point x="172" y="581" type="qcurve" smooth="yes"/>
      <point x="230" y="621"/>
      <point x="296" y="615" type="qcurve" smooth="yes"/>
      <point x="296" y="614"/>
      <point x="300" y="660" type="qcurve" smooth="yes"/>
      <point x="304" y="702"/>
      <point x="303" y="713" type="qcurve" smooth="no"/>
      <point x="427" y="713"/>
      <point x="426" y="711" type="qcurve" smooth="yes"/>
      <point x="406" y="672"/>
      <point x="377" y="610" type="qcurve" smooth="no"/>
      <point x="423" y="608"/>
      <point x="446" y="564" type="qcurve" smooth="yes"/>
      <point x="462" y="534"/>
    </contour>
    <contour>
      <point x="227" y="414" type="qcurve" smooth="no"/>
      <point x="226" y="414" type="line" smooth="no"/>
      <point x="218" y="391"/>
      <point x="200" y="284" type="qcurve" smooth="yes"/>
      <point x="183" y="183"/>
      <point x="183" y="169" type="qcurve" smooth="yes"/>
      <point x="183" y="138"/>
      <point x="213" y="138" type="qcurve" smooth="yes"/>
      <point x="242" y="138"/>
      <point x="256" y="154" type="qcurve" smooth="yes"/>
      <point x="267" y="166"/>
      <point x="267" y="181" type="qcurve" smooth="yes"/>
      <point x="267" y="185"/>
      <point x="266" y="194" type="qcurve" smooth="no"/>
      <point x="313" y="454" type="line" smooth="no"/>
      <point x="304" y="462"/>
      <point x="288" y="462" type="qcurve" smooth="yes"/>
      <point x="269" y="462"/>
      <point x="231" y="431"/>
    </contour>
  </outline>
</glyph>
<glyph name="ugrave" format="1">
  <advance width="528"/>
  <unicode hex="00f9"/>
  <outline>
    <contour>
      <point x="380" y="757" type="line" smooth="no"/>
      <point x="402" y="650" type="line" smooth="no"/>
      <point x="499" y="652" type="line" smooth="no"/>
      <point x="423" y="141" type="line" smooth="yes"/>
      <point x="415" y="91"/>
      <point x="364" y="51" type="qcurve" smooth="yes"/>
      <point x="307" y="7"/>
      <point x="227" y="7" type="qcurve" smooth="yes"/>
      <point x="113" y="7"/>
      <point x="69" y="78" type="qcurve" smooth="yes"/>
      <point x="46" y="115"/>
      <point x="46" y="166" type="qcurve" smooth="no"/>
      <point x="104" y="644" type="line" smooth="no"/>
      <point x="149" y="644"/>
      <point x="255" y="647" type="qcurve" smooth="no"/>
      <point x="227" y="422"/>
      <point x="215" y="278" type="qcurve" smooth="no"/>
      <point x="212" y="256"/>
      <point x="212" y="238" type="qcurve" smooth="yes"/>
      <point x="212" y="167"/>
      <point x="256" y="167" type="qcurve" smooth="yes"/>
      <point x="289" y="167"/>
      <point x="298" y="237" type="qcurve" smooth="yes"/>
      <point x="345" y="607" type="line" smooth="no"/>
      <point x="319" y="607" type="line" smooth="no"/>
      <point x="274" y="758" type="line" smooth="no"/>
    </contour>
  </outline>
</glyph>
<glyph name="Ydieresis" format="1">
  <advance width="548"/>
  <unicode hex="0178"/>
  <outline>
    <contour>
      <point x="348" y="695" type="line" smooth="no"/>
      <point x="481" y="699" type="line" smooth="no"/>
      <point x="473" y="644"/>
      <point x="473" y="641" type="qcurve" smooth="no"/>
      <point x="484" y="638"/>
      <point x="554" y="638" type="qcurve" smooth="no"/>
      <point x="338" y="291" type="line" smooth="no"/>
      <point x="315" y="4" type="line" smooth="no"/>
      <point x="229" y="6"/>
      <point x="133" y="-1" type="qcurve" smooth="no"/>
      <point x="183" y="363" type="line" smooth="no"/>
      <point x="43" y="639" type="line" smooth="no"/>
      <point x="69" y="639"/>
      <point x="103" y="640" type="qcurve" smooth="no"/>
      <point x="105" y="649"/>
      <point x="115" y="689" type="qcurve" smooth="no"/>
      <point x="249" y="695" type="line" smooth="no"/>
      <point x="231" y="599" type="line" smooth="no"/>
      <point x="276" y="489" type="line" smooth="no"/>
      <point x="335" y="591" type="line" smooth="no"/>
      <point x="334" y="590" type="line" smooth="no"/>
    </contour>
  </outline>
</glyph>
<glyph name="circumflex" format="1">
  <advance width="961"/>
  <unicode hex="02c6"/>
  <outline>
    <contour>
      <point x="280" y="656" type="qcurve" smooth="no"/>
      <point x="366" y="689"/>
      <point x="406" y="710" type="qcurve" smooth="no"/>
      <point x="525" y="655" type="line" smooth="no"/>
      <point x="530" y="591" type="line" smooth="no"/>
      <point x="501" y="588" type="line" smooth="no"/>
      <point x="400" y="613" type="line" smooth="no"/>
      <point x="297" y="595"/>
      <point x="258" y="589" type="qcurve" smooth="no"/>
      <point x="268" y="622"/>
    </contour>
  </outline>
</glyph>
<glyph name="quotedblleft" format="1">
  <advance width="452"/>
  <unicode hex="201c"/>
  <outline>
    <contour>
      <point x="73" y="369" type="qcurve" smooth="no"/>
      <point x="72" y="387"/>
      <point x="59" y="505" type="qcurve" smooth="yes"/>
      <point x="51" y="583"/>
      <point x="53" y="644" type="qcurve" smooth="no"/>
      <point x="152" y="638"/>
      <point x="196" y="637" type="qcurve" smooth="no"/>
      <point x="201" y="498"/>
      <point x="200" y="483" type="qcurve" smooth="no"/>
      <point x="145" y="478"/>
      <point x="144" y="478" type="qcurve" smooth="yes"/>
      <point x="154" y="370" type="line" smooth="no"/>
      <point x="71" y="369"/>
    </contour>
    <contour>
      <point x="265" y="369" type="qcurve" smooth="no"/>
      <point x="264" y="387"/>
      <point x="251" y="505" type="qcurve" smooth="yes"/>
      <point x="243" y="583"/>
      <point x="245" y="644" type="qcurve" smooth="no"/>
      <point x="344" y="638"/>
      <point x="388" y="637" type="qcurve" smooth="no"/>
      <point x="393" y="498"/>
      <point x="392" y="483" type="qcurve" smooth="no"/>
      <point x="337" y="478"/>
      <point x="336" y="478" type="qcurve" smooth="yes"/>
      <point x="347" y="370" type="line" smooth="no"/>
      <point x="263" y="369"/>
    </contour>
  </outline>
</glyph>
<glyph name="guilsinglleft" format="1">
  <advance width="327"/>
  <unicode hex="2039"/>
  <outline>
    <contour>
      <point x="183" y="173" type="line" smooth="no"/>
      <point x="268" y="20" type="line" smooth="no"/>
      <point x="156" y="-26" type="line" smooth="no"/>
      <point x="40" y="197" type="line" smooth="no"/>
      <point x="151" y="383" type="line" smooth="no"/>
      <point x="275" y="375" type="line" smooth="no"/>
    </contour>
  </outline>
</glyph>
<glyph name="guilsinglright" format="1">
  <advance width="339"/>
  <unicode hex="203a"/>
  <outline>
    <contour>
      <point x="50" y="375" type="line" smooth="no"/>
      <point x="174" y="383" type="line" smooth="no"/>
      <point x="284" y="197" type="line" smooth="no"/>
      <point x="175" y="-26" type="line" smooth="no"/>
      <point x="57" y="20" type="line" smooth="no"/>
      <point x="141" y="173" type="line" smooth="no"/>
    </contour>
  </outline>
</glyph>
<glyph name="arrowright" format="1">
  <advance width="724"/>
  <unicode hex="2192"/>
  <outline>
    <contour>
      <point x="44" y="185" type="line" smooth="no"/>
      <point x="85" y="260" type="line" smooth="no"/>
      <point x="48" y="317" type="line" smooth="no"/>
      <point x="515" y="328" type="line" smooth="no"/>
      <point x="517" y="449" type="line" smooth="no"/>
      <point x="555" y="411"/>
      <point x="609" y="346" type="qcurve" smooth="yes"/>
      <point x="659" y="285"/>
      <point x="681" y="263" type="qcurve" smooth="no"/>
      <point x="508" y="73" type="line" smooth="no"/>
      <point x="517" y="193" type="line" smooth="no"/>
    </contour>
  </outline>
</glyph>
<glyph name="arrowdown" format="1">
  <advance width="410"/>
  <unicode hex="2193"/>
  <outline>
    <contour>
      <point x="280" y="167" type="line" smooth="no"/>
      <point x="400" y="177" type="line" smooth="no"/>
      <point x="343" y="126"/>
      <point x="275" y="72" type="qcurve" smooth="yes"/>
      <point x="182" y="-3" type="line" smooth="no"/>
      <point x="138" y="38"/>
      <point x="24" y="167" type="qcurve" smooth="no"/>
      <point x="145" y="169" type="line" smooth="no"/>
      <point x="213" y="637" type="line" smooth="no"/>
      <point x="271" y="599" type="line" smooth="no"/>
      <point x="346" y="641" type="line" smooth="no"/>
    </contour>
  </outline>
</glyph>
